<?xml version="1.0" encoding="UTF-8"?>
<svg version="1.1" xmlns="http://www.w3.org/2000/svg" width="880" height="754">
  <path
    d="M0 0 C2.74427182 -0.00073018 5.48853913 -0.00289966 8.23280978 -0.00549722 C17.95865373 -0.01465785 27.68448432 -0.01884511 37.41033244 -0.01804566 C45.2576842 -0.01751677 53.10498565 -0.02449955 60.95232463 -0.03855348 C100.75694164 -0.10818784 140.5399467 -0.04627039 180.33098674 1.09303832 C181.0649943 1.11398378 181.79900186 1.13492923 182.55525208 1.1565094 C386.02192678 7.01119496 386.02192678 7.01119496 426.08879924 48.68288207 C466.22774208 92.25741521 461.81808998 174.92948414 464.11351848 230.05995727 C464.19813627 232.07340581 464.28763563 234.08664742 464.37737346 236.09987426 C473.98542417 456.71440371 473.98542417 456.71440371 424.74504924 531.40944457 C423.90586955 532.3195227 423.06668986 533.22960082 422.20208049 534.16725707 C421.6207133 534.8298352 421.03934611 535.49241332 420.44036174 536.17506957 C377.13988886 583.07482608 281.3129159 574.16411748 223.72307658 576.47194457 C216.19591096 576.7649062 208.66800649 577.03389295 201.13958049 577.29225707 C200.02409831 577.33086852 198.90861613 577.36947997 197.75933146 577.40926147 C189.96722694 577.67415664 182.17442291 577.90098475 174.38058925 578.10855269 C172.09033306 578.17026833 169.80015568 578.23452075 167.50997233 578.29887938 C130.24746378 579.33062449 92.98529351 579.36864425 55.71173453 579.35548139 C53.24576059 579.3547515 50.77978702 579.35450505 48.31381297 579.35439467 C-1.37318993 579.35100709 -51.02850646 579.16436567 -100.6852715 577.24810576 C-102.84053759 577.16562612 -104.99587658 577.0853869 -107.15125203 577.00581908 C-208.54334688 573.2587034 -208.54334688 573.2587034 -252.79791951 566.16725707 C-253.76826131 566.01289184 -254.73860311 565.8585266 -255.7383492 565.69948363 C-285.93817244 560.72056541 -311.57797757 546.64621779 -329.98541951 521.54225707 C-358.15361032 481.63131664 -357.20746459 422.40003602 -359.92291951 375.16725707 C-359.96153096 374.49859618 -360.00014241 373.82993529 -360.03992391 373.14101195 C-360.27732096 368.95946006 -360.48872335 364.77711667 -360.68363118 360.59337401 C-360.76262484 358.91649368 -360.84479919 357.23976125 -360.92954183 355.56316161 C-362.01187942 333.83392538 -361.99904726 312.1052265 -361.98541951 290.35475707 C-361.98515264 289.40060409 -361.98488576 288.4464511 -361.9846108 287.46338439 C-361.97449775 258.65072536 -361.79599311 229.92228421 -359.79791951 201.16725707 C-359.66224509 199.14577907 -359.52667019 197.12429439 -359.39118123 195.10280395 C-351.06513656 72.72737264 -351.06513656 72.72737264 -313.48371053 39.00734496 C-262.54136089 -4.71444498 -169.03028279 4.33903672 -106.54791951 2.04225707 C-105.50348683 2.00364562 -104.45905416 1.96503417 -103.382972 1.92525268 C-68.92865426 0.67333594 -34.47642103 0.00521014 0 0 Z "
    fill="#FF0033" transform="translate(387.79791951179504,86.83274292945862)" />
  <path
    d="M0 0 C4.42298576 1.47432859 7.52590216 2.70340233 11.4296875 4.984375 C12.97438721 5.88144165 12.97438721 5.88144165 14.55029297 6.79663086 C16.19602295 7.76354858 16.19602295 7.76354858 17.875 8.75 C19.03892834 9.4283255 20.20315883 10.10613277 21.36767578 10.78344727 C24.34667457 12.51783579 27.32193544 14.25851941 30.29589844 16.00152588 C34.81930958 18.65190134 39.34778183 21.2936351 43.875 23.9375 C44.84550293 24.50500977 45.81600586 25.07251953 46.81591797 25.65722656 C54.51639262 30.15346842 62.2528411 34.58494961 70 39 C79.72115617 44.5400173 89.40894658 50.13374809 99.06689453 55.78344727 C109.59084625 61.93766742 120.15380137 68.02369996 130.71777344 74.10888672 C136.14659942 77.23680148 141.57319281 80.36858448 147 83.5 C149.16665583 84.75001879 151.3333225 86.00001878 153.5 87.25 C166.5 94.75 166.5 94.75 169.75585938 96.62841797 C171.90295136 97.86710002 174.05008614 99.1057079 176.19726562 100.34423828 C181.29588809 103.2853335 186.39405296 106.22721413 191.49072266 109.17169189 C193.91047665 110.56958601 196.33047263 111.96706089 198.75048828 113.36450195 C200.46801052 114.35652324 202.18518052 115.34915429 203.90234375 116.34179688 C204.93488281 116.93798828 205.96742188 117.53417969 207.03125 118.1484375 C207.94455078 118.67614746 208.85785156 119.20385742 209.79882812 119.74755859 C211.17988691 120.53336511 212.57878495 121.28939248 214 122 C214 122.66 214 123.32 214 124 C213.27748047 124.41137207 212.55496094 124.82274414 211.81054688 125.24658203 C198.15105101 133.02766251 184.5118608 140.83876716 170.94335938 148.77783203 C163.64489594 153.04653955 156.32693146 157.28036097 149 161.5 C140.65197552 166.30844723 132.31751697 171.13897095 124 176 C114.5900967 181.49945536 105.15529437 186.95449196 95.7109375 192.39453125 C88.4604851 196.57349128 81.22511731 200.77740506 74 205 C65.68248186 209.86102973 57.34792636 214.69138101 49 219.5 C40.32129364 224.50028407 31.65290068 229.51767526 23 234.5625 C21.55947266 235.40167969 21.55947266 235.40167969 20.08984375 236.2578125 C14.68430034 239.41294684 9.31794556 242.6190599 3.99609375 245.91381836 C2 247 2 247 0 247 C0 165.49 0 83.98 0 0 Z "
    fill="#FFFEFE" transform="translate(357,253)" />
</svg>
